<svg preserveAspectRatio="none" overflow="visible" style="display: block;" width="13.8333" height="13.8333" viewBox="0 0 13.8333 13.8333" fill="none" xmlns="http://www.w3.org/2000/svg">
<g id="Group">
<path id="Vector" d="M6.91667 13.3333C10.4604 13.3333 13.3333 10.4604 13.3333 6.91667C13.3333 3.37292 10.4604 0.5 6.91667 0.5C3.37292 0.5 0.5 3.37292 0.5 6.91667C0.5 10.4604 3.37292 13.3333 6.91667 13.3333Z" fill="#FFEF5E"/>
<path id="Vector_2" d="M6.91667 2.73183C8.30287 2.73198 9.65672 3.15066 10.801 3.93305C11.9453 4.71544 12.8267 5.82509 13.3298 7.11675C13.3298 7.05025 13.3333 6.98375 13.3333 6.91667C13.3349 6.06463 13.1667 5.22082 12.8386 4.43448C12.5106 3.64813 12.0292 2.935 11.4225 2.33669C10.8159 1.73838 10.0962 1.26687 9.30541 0.949687C8.51461 0.6325 7.66856 0.475983 6.81663 0.48927C5.96469 0.502556 5.12394 0.685378 4.34341 1.02707C3.56289 1.36876 2.85824 1.86248 2.27056 2.47941C1.68289 3.09635 1.22397 3.82415 0.920583 4.62034C0.617194 5.41653 0.475411 6.26518 0.503507 7.11675C1.00665 5.82509 1.88805 4.71544 3.03234 3.93305C4.17663 3.15066 5.53048 2.73198 6.91667 2.73183Z" fill="#FFF9BF"/>
<path id="Vector_3" d="M8.31083 5.46125C8.4291 5.65063 8.59362 5.80681 8.78889 5.91508C8.98416 6.02335 9.20376 6.08016 9.42704 6.08016C9.65032 6.08016 9.86993 6.02335 10.0652 5.91508C10.2605 5.80681 10.425 5.65063 10.5433 5.46125M5.52133 5.46125C5.40303 5.6505 5.23854 5.80656 5.04333 5.91474C4.84812 6.02293 4.6286 6.07969 4.40542 6.07969C4.18223 6.07969 3.96271 6.02293 3.7675 5.91474C3.57229 5.80656 3.4078 5.6505 3.2895 5.46125M3.56833 8.86967C3.84379 9.53061 4.30871 10.0952 4.90451 10.4924C5.50031 10.8896 6.20033 11.1015 6.91638 11.1015C7.63242 11.1015 8.33244 10.8896 8.92824 10.4924C9.52404 10.0952 9.98896 9.53061 10.2644 8.86967" stroke="#191919" stroke-linecap="round" stroke-linejoin="round"/>
<path id="Vector_4" d="M6.91667 13.3333C10.4604 13.3333 13.3333 10.4604 13.3333 6.91667C13.3333 3.37292 10.4604 0.5 6.91667 0.5C3.37292 0.5 0.5 3.37292 0.5 6.91667C0.5 10.4604 3.37292 13.3333 6.91667 13.3333Z" stroke="#191919" stroke-linecap="round" stroke-linejoin="round"/>
</g>
</svg>
